<svg xmlns="http://www.w3.org/2000/svg" viewBox="0 0 24 24">
  <path fill="currentColor" d="M20.317 4.3698c-0.82496-0.47452-1.72-0.8345-2.6644-1.0962-0.0781-0.027-0.16113-0.0093-0.22822 0.0441-0.27092 0.2114-0.49132 0.52188-0.67228 0.8828-1.549-0.3418-3.1238-0.3418-4.6728 0-0.18524-0.3652-0.41004-0.6798-0.68656-0.8921-0.0671-0.0534-0.15014-0.0711-0.22822-0.0441-0.94444 0.2617-1.8394 0.6217-2.6644 1.0962-2.1328 1.2235-3.073 3.6565-2.9363 6.0752 0.2302 4.024 2.11 7.421 5.2107 9.219 0.4578 0.269 0.9599 0.449 1.4883 0.58 0.0991 0.024 0.2023-0.007 0.283-0.064 0.223-0.153 0.395-0.38 0.505-0.641 0.002-0.004 0.003-0.008 0.005-0.012-0.118-0.076-0.23-0.16-0.334-0.252-0.384-0.34-0.633-0.789-0.72-1.303-0.02-0.121 0.05-0.244 0.16-0.29 0.407-0.17 0.828-0.383 1.242-0.63 0.14-0.084 0.3-0.053 0.411 0.056 2.91 2.58 6.501 2.58 9.411 0 0.111-0.109 0.271-0.14 0.411-0.056 0.414 0.247 0.835 0.46 1.242 0.63 0.11 0.046 0.18 0.169 0.16 0.29-0.087 0.514-0.336 0.963-0.72 1.303-0.104 0.092-0.216 0.176-0.334 0.252 0.002 0.004 0.003 0.008 0.005 0.012 0.11 0.261 0.282 0.488 0.505 0.641 0.0807 0.057 0.1839 0.088 0.283 0.064 0.5284-0.131 1.0305-0.311 1.4883-0.58 3.1007-1.798 4.9797-5.195 5.2107-9.219 0.1367-2.4187-0.7923-4.8517-2.925-6.0752z"/>
</svg>
